<svg width="174" height="160" viewBox="0 0 174 160" fill="none" xmlns="http://www.w3.org/2000/svg">
<path d="M5.46267 96.8239C11.8269 118.575 30.1717 162.945 61.1705 158.963C92.2615 154.968 80.1199 114.876 108.581 109.382C121.11 106.963 129.603 128.647 142.16 127.972C158.333 127.103 166.564 111.095 171.083 97.6365C180.666 69.1005 166.316 20.7122 132.729 12.3317C103.42 5.01856 99.9912 40.8293 74.5063 30.4277C60.1823 24.5813 61.6133 7.12253 44.1678 3.59971C-8.60924 -7.05745 -3.00589 67.8812 5.46267 96.8239Z" fill="url(#paint0_linear_291_586)"/>
<path opacity="0.1" d="M154.789 147.547H19.2114C16.3962 147.547 14.1138 145.264 14.1138 142.449V35.6473C14.1138 32.8321 16.3962 30.5497 19.2114 30.5497H154.789C157.604 30.5497 159.886 32.8321 159.886 35.6473V142.449C159.886 145.264 157.604 147.547 154.789 147.547Z" fill="#2626BC"/>
<path d="M154.789 139.39H19.2114C16.3962 139.39 14.1138 137.108 14.1138 134.293V27.4911C14.1138 24.6758 16.3962 22.3934 19.2114 22.3934H154.789C157.604 22.3934 159.886 24.6758 159.886 27.4911V134.292C159.886 137.108 157.604 139.39 154.789 139.39Z" fill="white"/>
<path d="M154.789 22.3934H70.9658V139.39H154.789C157.604 139.39 159.886 137.108 159.886 134.292V27.4911C159.886 24.6758 157.604 22.3934 154.789 22.3934Z" fill="#9FB0FE"/>
<path d="M114.496 127.636C135.899 127.636 153.249 125.985 153.249 123.949C153.249 121.913 135.899 120.263 114.496 120.263C93.0935 120.263 75.7432 121.913 75.7432 123.949C75.7432 125.985 93.0935 127.636 114.496 127.636Z" fill="#8399FE"/>
<path d="M159.886 45.949V27.4911C159.886 24.6758 157.604 22.3934 154.789 22.3934H19.2114C16.3962 22.3934 14.1138 24.6758 14.1138 27.4911V45.949H159.886Z" fill="#6583FE"/>
<path d="M154.789 141.089H19.2109C15.4631 141.089 12.4141 138.04 12.4141 134.292V27.4914C12.4141 23.7436 15.4631 20.6945 19.2109 20.6945H154.789C158.536 20.6945 161.585 23.7436 161.585 27.4914V134.293C161.586 138.041 158.537 141.089 154.789 141.089ZM19.2109 24.093C17.337 24.093 15.8125 25.6175 15.8125 27.4914V134.293C15.8125 136.167 17.337 137.691 19.2109 137.691H154.789C156.662 137.691 158.187 136.167 158.187 134.293V27.4914C158.187 25.6175 156.662 24.093 154.789 24.093H19.2109Z" fill="#2626BC"/>
<path d="M29.0982 38.6386C31.1442 38.6386 32.8028 36.98 32.8028 34.934C32.8028 32.888 31.1442 31.2294 29.0982 31.2294C27.0522 31.2294 25.3936 32.888 25.3936 34.934C25.3936 36.98 27.0522 38.6386 29.0982 38.6386Z" fill="#FF5BA8"/>
<path d="M40.9249 38.6386C42.9709 38.6386 44.6295 36.98 44.6295 34.934C44.6295 32.888 42.9709 31.2294 40.9249 31.2294C38.8788 31.2294 37.2202 32.888 37.2202 34.934C37.2202 36.98 38.8788 38.6386 40.9249 38.6386Z" fill="white"/>
<path d="M52.7515 38.6386C54.7975 38.6386 56.4561 36.98 56.4561 34.934C56.4561 32.888 54.7975 31.2294 52.7515 31.2294C50.7055 31.2294 49.0469 32.888 49.0469 34.934C49.0469 36.98 50.7055 38.6386 52.7515 38.6386Z" fill="#02FFB3"/>
<path d="M146.906 39.0964H100.634V30.7716H146.907C147.845 30.7716 148.606 31.5325 148.606 32.4708V37.3972C148.605 38.3355 147.845 39.0964 146.906 39.0964Z" fill="#D2DEFF"/>
<path d="M100.862 30.8776C99.0653 29.0812 96.1423 29.0812 94.3458 30.8776C92.5494 32.6741 92.5494 35.5971 94.3458 37.3935C95.7178 38.7654 97.7453 39.0859 99.4275 38.3627L100.905 39.8403C101.569 40.5037 102.645 40.5037 103.308 39.8403C103.972 39.177 103.972 38.1007 103.308 37.4373L101.831 35.9597C102.554 34.2771 102.234 32.2496 100.862 30.8776ZM96.7489 33.2807C97.2202 32.8093 97.9873 32.8093 98.4586 33.2807C98.93 33.752 98.93 34.5191 98.4586 34.9904C97.9873 35.4618 97.2202 35.4618 96.7489 34.9904C96.2775 34.5187 96.2775 33.752 96.7489 33.2807Z" fill="white"/>
<path d="M36.6826 66.1266H26.5957C25.6574 66.1266 24.8965 65.3657 24.8965 64.4274C24.8965 63.4891 25.6574 62.7281 26.5957 62.7281H36.6826C37.6209 62.7281 38.3818 63.4891 38.3818 64.4274C38.3818 65.3657 37.6209 66.1266 36.6826 66.1266Z" fill="#FF7EB8"/>
<path d="M49.9365 72.0593H26.5957C25.6574 72.0593 24.8965 71.2984 24.8965 70.36C24.8965 69.4217 25.6574 68.6608 26.5957 68.6608H49.9365C50.8748 68.6608 51.6357 69.4217 51.6357 70.36C51.6357 71.2984 50.8748 72.0593 49.9365 72.0593Z" fill="#02FFB3"/>
<path d="M60.1318 90.874H26.5957C25.6574 90.874 24.8965 90.1131 24.8965 89.1748C24.8965 88.2365 25.6574 87.4756 26.5957 87.4756H60.1318C61.0701 87.4756 61.831 88.2365 61.831 89.1748C61.831 90.1131 61.0701 90.874 60.1318 90.874Z" fill="#8399FE"/>
<path d="M60.1318 84.9417H26.5957C25.6574 84.9417 24.8965 84.1808 24.8965 83.2425C24.8965 82.3042 25.6574 81.5433 26.5957 81.5433H60.1318C61.0701 81.5433 61.831 82.3042 61.831 83.2425C61.831 84.1808 61.0701 84.9417 60.1318 84.9417Z" fill="#8399FE"/>
<path d="M60.1318 96.8066H26.5957C25.6574 96.8066 24.8965 96.0457 24.8965 95.1074C24.8965 94.1691 25.6574 93.4082 26.5957 93.4082H60.1318C61.0701 93.4082 61.831 94.1691 61.831 95.1074C61.831 96.0457 61.0701 96.8066 60.1318 96.8066Z" fill="#8399FE"/>
<path d="M52.9951 102.739H26.5957C25.6574 102.739 24.8965 101.978 24.8965 101.04C24.8965 100.102 25.6574 99.3409 26.5957 99.3409H52.9951C53.9334 99.3409 54.6943 100.102 54.6943 101.04C54.6943 101.978 53.9334 102.739 52.9951 102.739Z" fill="#8399FE"/>
<path d="M45.5716 120.17H27.9904C26.2817 120.17 24.8965 118.785 24.8965 117.076C24.8965 115.367 26.2817 113.982 27.9904 113.982H45.5716C47.2803 113.982 48.6655 115.367 48.6655 117.076C48.6655 118.785 47.2803 120.17 45.5716 120.17Z" fill="#FF7EB8"/>
<path d="M95.1899 56.4437H90.2007C89.2624 56.4437 88.5015 55.6828 88.5015 54.7445C88.5015 53.8062 89.2624 53.0453 90.2007 53.0453H95.1899C96.1282 53.0453 96.8891 53.8062 96.8891 54.7445C96.8891 55.6828 96.1282 56.4437 95.1899 56.4437Z" fill="#6583FE"/>
<path d="M112.797 56.4437H107.808C106.869 56.4437 106.108 55.6828 106.108 54.7445C106.108 53.8062 106.869 53.0453 107.808 53.0453H112.797C113.735 53.0453 114.496 53.8062 114.496 54.7445C114.496 55.6828 113.735 56.4437 112.797 56.4437Z" fill="#6583FE"/>
<path d="M130.404 56.4437H125.415C124.476 56.4437 123.715 55.6828 123.715 54.7445C123.715 53.8062 124.476 53.0453 125.415 53.0453H130.404C131.342 53.0453 132.103 53.8062 132.103 54.7445C132.103 55.6828 131.342 56.4437 130.404 56.4437Z" fill="#6583FE"/>
<path d="M148.011 56.4437H143.021C142.083 56.4437 141.322 55.6828 141.322 54.7445C141.322 53.8062 142.083 53.0453 143.021 53.0453H148.011C148.949 53.0453 149.71 53.8062 149.71 54.7445C149.71 55.6828 148.949 56.4437 148.011 56.4437Z" fill="#6583FE"/>
<path d="M126.342 121.63H125.154V107.084H120.638V113.517C120.638 115.038 119.405 116.27 117.885 116.27C116.365 116.27 115.132 115.038 115.132 113.517V107.084H110.612V121.63H109.426C108.532 121.63 107.807 122.354 107.807 123.249C107.807 124.143 108.532 124.868 109.426 124.868H126.342C127.236 124.868 127.961 124.143 127.961 123.249C127.961 122.354 127.236 121.63 126.342 121.63Z" fill="#4369FD"/>
<path d="M145.69 110.229H90.0781C89.1398 110.229 88.3789 109.468 88.3789 108.53V75.1518C88.3789 74.2135 89.1398 73.4526 90.0781 73.4526H145.69C146.628 73.4526 147.389 74.2135 147.389 75.1518V108.53C147.389 109.468 146.628 110.229 145.69 110.229Z" fill="#6583FE"/>
<path d="M147.389 104.406V75.1518C147.389 74.2135 146.628 73.4526 145.69 73.4526H90.0781C89.1398 73.4526 88.3789 74.2135 88.3789 75.1518V104.406H147.389Z" fill="#97FFD2"/>
<path d="M112.615 82.2559H99.3132C97.4549 82.2559 95.9487 80.7497 95.9487 78.8915V76.8174C95.9487 74.9591 97.4549 73.4529 99.3132 73.4529H112.615C114.473 73.4529 115.979 74.9591 115.979 76.8174V78.8915C115.979 80.7494 114.473 82.2559 112.615 82.2559Z" fill="#02FFB3"/>
<path d="M95.5866 125.229H83.981C82.6671 125.229 81.6021 124.164 81.6021 122.85V100.152C81.6021 98.8382 82.6671 97.7731 83.981 97.7731H95.5866C96.9005 97.7731 97.9655 98.8382 97.9655 100.152V122.85C97.9655 124.164 96.9005 125.229 95.5866 125.229Z" fill="#4369FD"/>
<path d="M81.6025 102.739H97.966V120.263H81.6025V102.739Z" fill="#97FFD2"/>
<path d="M112.615 78.4429H99.3137C97.4554 78.4429 95.9492 76.9367 95.9492 75.0784V73.0043C95.9492 71.1461 97.4554 69.6399 99.3137 69.6399H112.615C114.473 69.6399 115.98 71.1461 115.98 73.0043V75.0784C115.98 76.9367 114.473 78.4429 112.615 78.4429Z" fill="#FF5BA8"/>
<path d="M140.229 89.5581H131.089C130.402 89.5581 129.782 89.1442 129.519 88.5093C129.256 87.8742 129.401 87.1435 129.888 86.6575L134.457 82.0873C135.12 81.4239 136.197 81.4239 136.86 82.0873C137.524 82.751 137.524 83.827 136.86 84.4904L135.191 86.1597H140.229C141.167 86.1597 141.928 86.9206 141.928 87.8589C141.928 88.7972 141.168 89.5581 140.229 89.5581Z" fill="white"/>
<path d="M135.659 99.7826C135.225 99.7826 134.789 99.6168 134.458 99.2851C133.794 98.6214 133.794 97.5455 134.458 96.8821L136.127 95.2128H131.089C130.151 95.2128 129.39 94.4519 129.39 93.5135C129.39 92.5752 130.151 91.8143 131.089 91.8143H140.229C140.917 91.8143 141.536 92.2283 141.799 92.8631C142.062 93.4983 141.917 94.2289 141.431 94.7149L136.861 99.2851C136.529 99.6168 136.094 99.7826 135.659 99.7826Z" fill="white"/>
<path d="M75.7429 10.5003C73.065 10.5003 70.8862 8.32151 70.8862 5.64355C70.8862 2.96524 73.065 0.786499 75.7429 0.786499C78.4212 0.786499 80.6 2.96524 80.6 5.64355C80.6 8.32117 78.4212 10.5003 75.7429 10.5003ZM75.7429 4.18494C74.9389 4.18494 74.2847 4.83947 74.2847 5.64355C74.2847 6.44762 74.9389 7.10181 75.7429 7.10181C76.547 7.10181 77.2015 6.44762 77.2015 5.64355C77.2015 4.83947 76.547 4.18494 75.7429 4.18494Z" fill="#01ECA5"/>
<path d="M25.02 157.84C24.0814 157.84 23.3208 157.079 23.3208 156.14C23.3208 155.016 22.4063 154.101 21.2817 154.101C20.3431 154.101 19.5825 153.341 19.5825 152.402C19.5825 151.463 20.3431 150.703 21.2817 150.703C22.4063 150.703 23.3208 149.788 23.3208 148.664C23.3208 147.725 24.0814 146.965 25.02 146.965C25.9587 146.965 26.7192 147.725 26.7192 148.664C26.7192 149.788 27.6338 150.703 28.7583 150.703C29.6969 150.703 30.4575 151.463 30.4575 152.402C30.4575 153.341 29.6969 154.101 28.7583 154.101C27.6338 154.101 26.7192 155.016 26.7192 156.14C26.7192 157.079 25.9587 157.84 25.02 157.84Z" fill="#6583FE"/>
<path d="M153.249 14.2385C152.31 14.2385 151.549 13.478 151.549 12.5393C151.549 11.4148 150.635 10.5002 149.51 10.5002C148.572 10.5002 147.811 9.73967 147.811 8.80102C147.811 7.86238 148.572 7.10181 149.51 7.10181C150.635 7.10181 151.549 6.18729 151.549 5.06274C151.549 4.1241 152.31 3.36353 153.249 3.36353C154.187 3.36353 154.948 4.1241 154.948 5.06274C154.948 6.18729 155.862 7.10181 156.987 7.10181C157.925 7.10181 158.686 7.86238 158.686 8.80102C158.686 9.73967 157.925 10.5002 156.987 10.5002C155.862 10.5002 154.948 11.4148 154.948 12.5393C154.948 13.4776 154.187 14.2385 153.249 14.2385Z" fill="#6583FE"/>
<path d="M41.7192 155.702C40.7806 155.702 40.02 154.941 40.02 154.002C40.02 152.878 39.1055 151.963 37.981 151.963C37.0423 151.963 36.2817 151.203 36.2817 150.264C36.2817 149.325 37.0423 148.565 37.981 148.565C39.1055 148.565 40.02 147.65 40.02 146.526C40.02 145.587 40.7806 144.827 41.7192 144.827C42.6579 144.827 43.4185 145.587 43.4185 146.526C43.4185 147.65 44.333 148.565 45.4575 148.565C46.3962 148.565 47.1567 149.325 47.1567 150.264C47.1567 151.203 46.3962 151.963 45.4575 151.963C44.333 151.963 43.4185 152.878 43.4185 154.002C43.4185 154.941 42.6575 155.702 41.7192 155.702Z" fill="#FF5BA8"/>
<path d="M92.7092 15.2434C90.0313 15.2434 87.8525 13.0647 87.8525 10.3867C87.8525 7.70843 90.0313 5.52969 92.7092 5.52969C95.3875 5.52969 97.5663 7.70843 97.5663 10.3867C97.5663 13.0644 95.3875 15.2434 92.7092 15.2434ZM92.7092 8.92813C91.9052 8.92813 91.251 9.58267 91.251 10.3867C91.251 11.1908 91.9052 11.845 92.7092 11.845C93.5133 11.845 94.1679 11.1908 94.1679 10.3867C94.1679 9.58267 93.5133 8.92813 92.7092 8.92813Z" fill="#FF5BA8"/>
<defs>
<linearGradient id="paint0_linear_291_586" x1="8.09544" y1="110.55" x2="156.169" y2="25.0595" gradientUnits="userSpaceOnUse">
<stop stop-color="#DCFDEE" stop-opacity="0"/>
<stop offset="0.6288" stop-color="#D2F3E4"/>
</linearGradient>
</defs>
</svg>
